<svg xmlns="http://www.w3.org/2000/svg" class="icon-comment" viewBox="0 0 64 64"><path style="fill:#67c2e7" d="M55.35,5.1H8.65a6.51,6.51,0,0,0-6.54,6.49V41.28a6.51,6.51,0,0,0,6.54,6.49h6.89V58.9L25.89,47.77H55.35a6.51,6.51,0,0,0,6.54-6.49V11.59A6.51,6.51,0,0,0,55.35,5.1Z"/><path style="fill:#fff" d="M16,22.19a4.21,4.21,0,1,1-4.2,4.2A4.21,4.21,0,0,1,16,22.19Z"/><path style="fill:#fff" d="M32,22.19a4.21,4.21,0,1,1-4.21,4.2A4.2,4.2,0,0,1,32,22.19Z"/><circle style="fill:#fff" cx="47.96" cy="26.39" r="4.2"/></svg>
